HIERARCHY
ROOT joint_Root
{
	OFFSET 0.0 0.0 0.0
	CHANNELS 6 Xposition Yposition Zposition Zrotation Xrotation Yrotation 
	JOINT Hips
	{
		OFFSET -17.1583 93.1646 452.98
		CHANNELS 6 Xposition Yposition Zposition Zrotation Xrotation Yrotation 
		JOINT Spine
		{
			OFFSET 15.7357 0.0 0.0
			CHANNELS 6 Xposition Yposition Zposition Zrotation Xrotation Yrotation 
			JOINT Chest
			{
				OFFSET 8.98455 -0.406207 0.0
				CHANNELS 6 Xposition Yposition Zposition Zrotation Xrotation Yrotation 
				JOINT Neck
				{
					OFFSET 16.3773 0.0 0.0
					CHANNELS 6 Xposition Yposition Zposition Zrotation Xrotation Yrotation 
					JOINT Head
					{
						OFFSET 6.45672 0.0 0.0
						CHANNELS 6 Xposition Yposition Zposition Zrotation Xrotation Yrotation 
						End Site
						{
							OFFSET 0.0 0.0 0.0
						}
					}
				}
				JOINT Shoulder_L
				{
					OFFSET 12.9942 -0.242716 4.98039
					CHANNELS 6 Xposition Yposition Zposition Zrotation Xrotation Yrotation 
					JOINT UpperArm_L
					{
						OFFSET 5.34809 0.0 0.0
						CHANNELS 6 Xposition Yposition Zposition Zrotation Xrotation Yrotation 
						JOINT LowerArm_L
						{
							OFFSET 24.3286 1.87007e-05 0.0
							CHANNELS 6 Xposition Yposition Zposition Zrotation Xrotation Yrotation 
							JOINT Hand_L
							{
								OFFSET 22.2916 0.0 0.0
								CHANNELS 6 Xposition Yposition Zposition Zrotation Xrotation Yrotation 
								End Site
								{
									OFFSET 0.0 0.0 0.0
								}
							}
						}
					}
				}
				JOINT Shoulder_R
				{
					OFFSET 12.9945 -0.242716 -4.98039
					CHANNELS 6 Xposition Yposition Zposition Zrotation Xrotation Yrotation 
					JOINT UpperArm_R
					{
						OFFSET -5.34813 0.0 0.0
						CHANNELS 6 Xposition Yposition Zposition Zrotation Xrotation Yrotation 
						JOINT LowerArm_R
						{
							OFFSET -24.3289 0.000322201 0.0
							CHANNELS 6 Xposition Yposition Zposition Zrotation Xrotation Yrotation 
							JOINT Hand_R
							{
								OFFSET -22.2915 -0.000108084 0.0
								CHANNELS 6 Xposition Yposition Zposition Zrotation Xrotation Yrotation 
								End Site
								{
									OFFSET 0.0 0.0 0.0
								}
							}
						}
					}
				}
			}
		}
		JOINT UpperLeg_L
		{
			OFFSET -2.19248 -6.46944 0.0
			CHANNELS 6 Xposition Yposition Zposition Zrotation Xrotation Yrotation 
			JOINT LowerLeg_L
			{
				OFFSET 39.0811 0.0 -1.23785e-05
				CHANNELS 6 Xposition Yposition Zposition Zrotation Xrotation Yrotation 
				JOINT Foot_L
				{
					OFFSET 40.9854 0.0 -1.26872e-05
					CHANNELS 6 Xposition Yposition Zposition Zrotation Xrotation Yrotation 
					JOINT Toes_L
					{
						OFFSET 11.7543 0.0 0.0
						CHANNELS 6 Xposition Yposition Zposition Zrotation Xrotation Yrotation 
						End Site
						{
							OFFSET 0.0 0.0 0.0
						}
					}
				}
			}
		}
		JOINT UpperLeg_R
		{
			OFFSET -2.19251 6.46944 0.0
			CHANNELS 6 Xposition Yposition Zposition Zrotation Xrotation Yrotation 
			JOINT LowerLeg_R
			{
				OFFSET -39.0811 -0.00228153 -0.0401928
				CHANNELS 6 Xposition Yposition Zposition Zrotation Xrotation Yrotation 
				JOINT Foot_R
				{
					OFFSET -40.9854 0.0 0.0
					CHANNELS 6 Xposition Yposition Zposition Zrotation Xrotation Yrotation 
					JOINT Toes_R
					{
						OFFSET -11.7543 0.0 0.0
						CHANNELS 6 Xposition Yposition Zposition Zrotation Xrotation Yrotation 
						End Site
						{
							OFFSET 0.0 0.0 0.0
						}
					}
				}
			}
		}
	}
}
MOTION
Frames:	4
Frame Time:	0.0333333
0.000000 0.000000 0.000000 0.000000 0.000000 -0.000000 -4.896940 83.399400 458.590000 -84.626600 4.546740 156.336000 15.735700 0.000005 -0.000001 105.261000 81.762300 -102.261000 8.984550 -0.406207 -0.000000 8.038900 4.325000 5.692110 16.377300 -0.000001 -0.000001 -13.365600 3.279980 -0.625577 6.456720 -0.000001 -0.000000 -4.670490 3.985690 -4.540650 12.994200 -0.242716 4.980390 -91.706800 5.265950 -72.012000 5.348090 -0.000007 -0.000001 -56.512900 -15.520100 14.060400 24.328600 0.000019 0.000005 3.892630 36.328500 -6.552140 22.291600 -0.000001 0.000005 -11.048100 5.093010 5.251750 12.994500 -0.242716 -4.980390 89.963200 0.169394 -77.756900 -5.348130 -0.000001 -0.000004 -63.375500 12.146100 -18.477700 -24.328900 0.000322 -0.000009 4.571300 2.571490 -60.771700 -22.291500 -0.000108 -0.000004 17.917000 5.427680 -3.772900 -2.192480 -6.469440 -0.000000 -173.808000 -1.297490 -42.786600 39.081100 -0.000007 -0.000012 0.368356 -0.001120 89.824400 40.985400 -0.000006 -0.000013 -6.871770 11.586700 -46.235000 11.754300 -0.000000 0.000003 0.001794 0.039535 -14.973000 -2.192510 6.469440 -0.000001 -174.866000 4.714750 152.376000 -39.081100 -0.002282 -0.040193 0.029270 -0.022297 49.407000 -40.985400 0.000008 0.000006 -9.814550 1.438240 -89.601200 -11.754300 -0.000006 -0.000006 0.001896 0.042918 -14.832200
0.000000 0.000000 0.000000 0.000000 0.000000 -0.000000 -4.993020 85.940200 451.457000 -87.728400 3.517140 155.592000 15.735700 0.000005 -0.000001 107.178000 81.949100 -105.624000 8.984550 -0.406207 -0.000000 7.574550 4.734110 2.791480 16.377300 -0.000001 -0.000001 -13.087900 2.554250 -0.294927 6.456720 -0.000001 -0.000000 -4.271550 2.469810 -1.992650 12.994200 -0.242716 4.980390 -91.169000 3.609660 -72.044200 5.348090 -0.000007 -0.000001 -50.220900 -18.020000 17.321000 24.328600 0.000019 0.000005 3.948500 30.853400 -7.668260 22.291600 -0.000001 0.000005 0.303550 4.950600 8.191320 12.994500 -0.242716 -4.980390 89.992200 0.036826 -78.104100 -5.348130 -0.000001 -0.000004 -63.409500 9.229150 -16.642800 -24.328900 0.000322 -0.000009 1.690640 0.466997 -74.797200 -22.291500 -0.000108 -0.000004 22.439200 5.488670 -6.067280 -2.192480 -6.469440 -0.000000 -176.310000 0.675376 -51.057800 39.081100 -0.000007 -0.000012 0.294860 -0.002594 89.494100 40.985400 -0.000006 -0.000013 -4.716300 8.394080 -55.283400 11.754300 -0.000000 0.000003 0.002362 0.064999 -13.940500 -2.192510 6.469440 -0.000001 -178.118000 8.892440 161.148000 -39.081100 -0.002282 -0.040193 0.015560 -0.016010 37.476900 -40.985400 0.000008 0.000006 -8.761570 1.706360 -81.033800 -11.754300 -0.000006 -0.000006 -0.006394 -0.074377 -19.600400
0.000000 0.000000 0.000000 0.000000 0.000000 -0.000000 -5.203940 88.845400 444.027000 -90.944500 3.309110 153.672000 15.735700 0.000005 -0.000001 110.703000 82.585400 -110.849000 8.984550 -0.406207 -0.000000 6.132080 5.230160 -0.571478 16.377300 -0.000001 -0.000001 -12.585800 1.966050 -0.226748 6.456720 -0.000001 -0.000000 -3.520490 0.854153 1.284860 12.994200 -0.242716 4.980390 -90.476300 1.535730 -72.774600 5.348090 -0.000007 -0.000001 -45.727600 -20.579100 19.719200 24.328600 0.000019 0.000005 2.920600 21.855400 -7.803090 22.291600 -0.000001 0.000005 16.940300 4.742360 12.214000 12.994500 -0.242716 -4.980390 90.060600 -0.307015 -78.829100 -5.348130 -0.000001 -0.000004 -64.400300 6.274690 -13.411300 -24.328900 0.000322 -0.000009 -1.800290 -0.154862 -84.984100 -22.291500 -0.000108 -0.000004 23.418700 5.570080 -9.670080 -2.192480 -6.469440 -0.000000 -179.347000 1.559520 -56.964100 39.081100 -0.000007 -0.000012 0.225162 -0.030661 82.243600 40.985400 -0.000006 -0.000013 -4.627510 6.062740 -62.283100 11.754300 -0.000000 0.000003 0.001851 0.041396 -14.897500 -2.192510 6.469440 -0.000001 178.765000 12.043500 167.799000 -39.081100 -0.002282 -0.040193 0.018787 -0.032878 25.205800 -40.985400 0.000008 0.000006 -6.301110 -0.680805 -66.182300 -11.754300 -0.000006 -0.000006 -0.038641 -0.254646 -27.029600
0.000000 0.000000 0.000000 0.000000 0.000000 -0.000000 -5.343200 91.478300 436.687000 -92.994900 3.171200 150.999000 15.735700 0.000005 -0.000001 115.667000 83.415500 -117.142000 8.984550 -0.406207 -0.000000 4.196460 5.741170 -3.159690 16.377300 -0.000001 -0.000001 -12.081500 1.627660 -0.493998 6.456720 -0.000001 -0.000000 -2.680900 -0.686433 4.468560 12.994200 -0.242716 4.980390 -90.020400 0.067344 -73.116000 5.348090 -0.000007 -0.000001 -42.826200 -23.689800 19.647600 24.328600 0.000019 0.000005 1.373520 13.213300 -5.979650 22.291600 -0.000001 0.000005 38.607800 4.516690 16.059500 12.994500 -0.242716 -4.980390 90.075800 -0.412897 -79.606500 -5.348130 -0.000001 -0.000004 -65.132200 4.757320 -10.456300 -24.328900 0.000322 -0.000009 -3.902040 -0.005258 -89.913800 -22.291500 -0.000108 -0.000004 26.134000 5.672650 -17.188100 -2.192480 -6.469440 -0.000000 178.510000 1.590410 -60.772900 39.081100 -0.000007 -0.000012 0.140498 -0.050932 70.071900 40.985400 -0.000006 -0.000013 -4.597250 6.650170 -67.655400 11.754300 -0.000000 0.000003 0.001832 0.040766 -14.923100 -2.192510 6.469440 -0.000001 177.633000 16.391100 171.539000 -39.081100 -0.002282 -0.040193 0.028438 -0.096378 14.601100 -40.985400 0.000008 0.000006 -0.775874 -2.173180 -46.413100 -11.754300 -0.000006 -0.000006 -0.072310 -0.369859 -31.897200
